<?xml version="1.0" encoding="UTF-8"?>
<svg xmlns="http://www.w3.org/2000/svg" viewBox="0 0 1100 700">
  <defs>
    <linearGradient id="hdr" x1="0%" y1="0%" x2="100%" y2="0%">
      <stop offset="0%" stop-color="#1a1a2e"/>
      <stop offset="100%" stop-color="#16213e"/>
    </linearGradient>
  </defs>

  <!-- Window frame -->
  <rect width="1100" height="700" rx="8" fill="#0d1117"/>
  <rect width="1100" height="40" rx="8" fill="url(#hdr)"/>
  <rect x="0" y="32" width="1100" height="8" fill="url(#hdr)"/>
  <circle cx="20" cy="20" r="6" fill="#ff5f56"/>
  <circle cx="40" cy="20" r="6" fill="#ffbd2e"/>
  <circle cx="60" cy="20" r="6" fill="#27c93f"/>
  <text x="550" y="25" font-family="monospace" font-size="12" fill="#8b949e" text-anchor="middle">Kairos Console  kairos-console.apps.cluster-xqg4c.dynamic2.redhatworkshops.io</text>

  <!-- Sidebar -->
  <rect x="0" y="40" width="200" height="660" fill="#161b22"/>
  <line x1="200" y1="40" x2="200" y2="700" stroke="#30363d" stroke-width="1"/>

  <!-- Logo in sidebar -->
  <text x="100" y="75" font-family="monospace" font-size="16" fill="#00e5ff" text-anchor="middle" font-weight="bold">KAIROS</text>
  <text x="100" y="92" font-family="monospace" font-size="9" fill="#8b949e" text-anchor="middle">Multi-cluster Governance</text>

  <!-- Nav items -->
  <rect x="8" y="110" width="184" height="32" rx="4" fill="#21262d"/>
  <text x="30" y="130" font-family="monospace" font-size="11" fill="#c9d1d9">=Ę Dashboard</text>

  <rect x="8" y="148" width="184" height="32" rx="4" fill="transparent"/>
  <text x="30" y="168" font-family="monospace" font-size="11" fill="#8b949e">> Agents</text>

  <rect x="8" y="186" width="184" height="32" rx="4" fill="transparent"/>
  <text x="30" y="206" font-family="monospace" font-size="11" fill="#8b949e">=Ü Policies</text>

  <rect x="8" y="224" width="184" height="32" rx="4" fill="transparent"/>
  <text x="30" y="244" font-family="monospace" font-size="11" fill="#8b949e">< Clusters</text>

  <rect x="8" y="262" width="184" height="32" rx="4" fill="transparent"/>
  <text x="30" y="282" font-family="monospace" font-size="11" fill="#8b949e">=á Observability</text>

  <rect x="8" y="300" width="184" height="32" rx="4" fill="transparent"/>
  <text x="30" y="320" font-family="monospace" font-size="11" fill="#8b949e">=Ë Events</text>

  <!-- Main content - Dashboard -->
  <text x="230" y="75" font-family="monospace" font-size="18" fill="#c9d1d9" font-weight="bold">Dashboard</text>

  <!-- Status cards -->
  <!-- Clusters -->
  <rect x="220" y="95" width="270" height="100" rx="6" fill="#161b22" stroke="#30363d"/>
  <text x="240" y="120" font-family="monospace" font-size="11" fill="#8b949e">Clusters</text>
  <text x="240" y="155" font-family="monospace" font-size="36" fill="#00e5ff" font-weight="bold">3</text>
  <text x="240" y="178" font-family="monospace" font-size="10" fill="#00e676">Ď 3 healthy</text>

  <!-- Agents -->
  <rect x="510" y="95" width="270" height="100" rx="6" fill="#161b22" stroke="#30363d"/>
  <text x="530" y="120" font-family="monospace" font-size="11" fill="#8b949e">Active Agents</text>
  <text x="530" y="155" font-family="monospace" font-size="36" fill="#7c4dff" font-weight="bold">3</text>
  <text x="530" y="178" font-family="monospace" font-size="10" fill="#ff6d00">Ď 2 autopilot · 1 supervised</text>

  <!-- Policies -->
  <rect x="800" y="95" width="270" height="100" rx="6" fill="#161b22" stroke="#30363d"/>
  <text x="820" y="120" font-family="monospace" font-size="11" fill="#8b949e">Policies</text>
  <text x="820" y="155" font-family="monospace" font-size="36" fill="#ffab40" font-weight="bold">1</text>
  <text x="820" y="178" font-family="monospace" font-size="10" fill="#4caf50">Ď 1 active</text>

  <!-- Agents table -->
  <text x="230" y="230" font-family="monospace" font-size="14" fill="#c9d1d9" font-weight="bold">Agents</text>

  <!-- Table header -->
  <rect x="220" y="242" width="850" height="30" fill="#161b22"/>
  <text x="240" y="262" font-family="monospace" font-size="10" fill="#00e5ff">NAME</text>
  <text x="370" y="262" font-family="monospace" font-size="10" fill="#00e5ff">CLUSTER</text>
  <text x="470" y="262" font-family="monospace" font-size="10" fill="#00e5ff">MODE</text>
  <text x="580" y="262" font-family="monospace" font-size="10" fill="#00e5ff">AI MODEL</text>
  <text x="770" y="262" font-family="monospace" font-size="10" fill="#00e5ff">WATCHED</text>
  <text x="870" y="262" font-family="monospace" font-size="10" fill="#00e5ff">CORRECTIONS</text>
  <text x="990" y="262" font-family="monospace" font-size="10" fill="#00e5ff">STATUS</text>

  <!-- Row 1: hub-agent -->
  <rect x="220" y="274" width="850" height="30" fill="#0d1117"/>
  <text x="240" y="294" font-family="monospace" font-size="10" fill="#c9d1d9">hub-agent</text>
  <text x="370" y="294" font-family="monospace" font-size="10" fill="#c9d1d9">hub</text>
  <rect x="465" y="282" width="65" height="18" rx="9" fill="rgba(0,229,255,0.15)" stroke="#00e5ff" stroke-width="0.5"/>
  <text x="498" y="294" font-family="monospace" font-size="9" fill="#00e5ff" text-anchor="middle">supervised</text>
  <text x="580" y="294" font-family="monospace" font-size="10" fill="#c9d1d9">deepseek-r1-distill-qwen-14b</text>
  <text x="790" y="294" font-family="monospace" font-size="10" fill="#c9d1d9" text-anchor="middle">8</text>
  <text x="910" y="294" font-family="monospace" font-size="10" fill="#c9d1d9" text-anchor="middle">0</text>
  <circle cx="998" cy="290" r="4" fill="#00e676"/>
  <text x="1008" y="294" font-family="monospace" font-size="10" fill="#00e676">Active</text>

  <!-- Row 2: east-agent -->
  <rect x="220" y="306" width="850" height="30" fill="#161b22"/>
  <text x="240" y="326" font-family="monospace" font-size="10" fill="#c9d1d9">east-agent</text>
  <text x="370" y="326" font-family="monospace" font-size="10" fill="#c9d1d9">east</text>
  <rect x="465" y="314" width="60" height="18" rx="9" fill="rgba(255,109,0,0.15)" stroke="#ff6d00" stroke-width="0.5"/>
  <text x="495" y="326" font-family="monospace" font-size="9" fill="#ff6d00" text-anchor="middle">autopilot</text>
  <text x="580" y="326" font-family="monospace" font-size="10" fill="#c9d1d9">deepseek-r1-distill-qwen-14b</text>
  <text x="790" y="326" font-family="monospace" font-size="10" fill="#c9d1d9" text-anchor="middle">12</text>
  <text x="910" y="326" font-family="monospace" font-size="10" fill="#ffab40" text-anchor="middle">3</text>
  <circle cx="998" cy="322" r="4" fill="#00e676"/>
  <text x="1008" y="326" font-family="monospace" font-size="10" fill="#00e676">Active</text>

  <!-- Row 3: west-agent -->
  <rect x="220" y="338" width="850" height="30" fill="#0d1117"/>
  <text x="240" y="358" font-family="monospace" font-size="10" fill="#c9d1d9">west-agent</text>
  <text x="370" y="358" font-family="monospace" font-size="10" fill="#c9d1d9">west</text>
  <rect x="465" y="346" width="60" height="18" rx="9" fill="rgba(255,109,0,0.15)" stroke="#ff6d00" stroke-width="0.5"/>
  <text x="495" y="358" font-family="monospace" font-size="9" fill="#ff6d00" text-anchor="middle">autopilot</text>
  <text x="580" y="358" font-family="monospace" font-size="10" fill="#c9d1d9">deepseek-r1-distill-qwen-14b</text>
  <text x="790" y="358" font-family="monospace" font-size="10" fill="#c9d1d9" text-anchor="middle">10</text>
  <text x="910" y="358" font-family="monospace" font-size="10" fill="#ffab40" text-anchor="middle">1</text>
  <circle cx="998" cy="354" r="4" fill="#00e676"/>
  <text x="1008" y="358" font-family="monospace" font-size="10" fill="#00e676">Active</text>

  <!-- Clusters section -->
  <text x="230" y="405" font-family="monospace" font-size="14" fill="#c9d1d9" font-weight="bold">Clusters</text>

  <!-- Cluster table header -->
  <rect x="220" y="417" width="850" height="30" fill="#161b22"/>
  <text x="240" y="437" font-family="monospace" font-size="10" fill="#00e5ff">NAME</text>
  <text x="360" y="437" font-family="monospace" font-size="10" fill="#00e5ff">REGION</text>
  <text x="480" y="437" font-family="monospace" font-size="10" fill="#00e5ff">API URL</text>
  <text x="810" y="437" font-family="monospace" font-size="10" fill="#00e5ff">AGENTS</text>
  <text x="900" y="437" font-family="monospace" font-size="10" fill="#00e5ff">POLICIES</text>
  <text x="1000" y="437" font-family="monospace" font-size="10" fill="#00e5ff">STATUS</text>

  <rect x="220" y="449" width="850" height="28" fill="#0d1117"/>
  <text x="240" y="467" font-family="monospace" font-size="10" fill="#c9d1d9">hub</text>
  <text x="360" y="467" font-family="monospace" font-size="10" fill="#c9d1d9">central</text>
  <text x="480" y="467" font-family="monospace" font-size="9" fill="#8b949e">api.cluster-xqg4c.dynamic2.redhatworkshops.io:6443</text>
  <text x="825" y="467" font-family="monospace" font-size="10" fill="#c9d1d9" text-anchor="middle">1</text>
  <text x="925" y="467" font-family="monospace" font-size="10" fill="#c9d1d9" text-anchor="middle">1</text>
  <circle cx="1008" cy="463" r="4" fill="#00e676"/>
  <text x="1018" y="467" font-family="monospace" font-size="10" fill="#00e676">OK</text>

  <rect x="220" y="479" width="850" height="28" fill="#161b22"/>
  <text x="240" y="497" font-family="monospace" font-size="10" fill="#c9d1d9">east</text>
  <text x="360" y="497" font-family="monospace" font-size="10" fill="#c9d1d9">us-east-2</text>
  <text x="480" y="497" font-family="monospace" font-size="9" fill="#8b949e">api.cluster-2847b.dynamic2.redhatworkshops.io:6443</text>
  <text x="825" y="497" font-family="monospace" font-size="10" fill="#c9d1d9" text-anchor="middle">1</text>
  <text x="925" y="497" font-family="monospace" font-size="10" fill="#c9d1d9" text-anchor="middle">0</text>
  <circle cx="1008" cy="493" r="4" fill="#00e676"/>
  <text x="1018" y="497" font-family="monospace" font-size="10" fill="#00e676">OK</text>

  <rect x="220" y="509" width="850" height="28" fill="#0d1117"/>
  <text x="240" y="527" font-family="monospace" font-size="10" fill="#c9d1d9">west</text>
  <text x="360" y="527" font-family="monospace" font-size="10" fill="#c9d1d9">us-west-1</text>
  <text x="480" y="527" font-family="monospace" font-size="9" fill="#8b949e">api.cluster-5zjkk.dynamic2.redhatworkshops.io:6443</text>
  <text x="825" y="527" font-family="monospace" font-size="10" fill="#c9d1d9" text-anchor="middle">1</text>
  <text x="925" y="527" font-family="monospace" font-size="10" fill="#c9d1d9" text-anchor="middle">0</text>
  <circle cx="1008" cy="523" r="4" fill="#00e676"/>
  <text x="1018" y="527" font-family="monospace" font-size="10" fill="#00e676">OK</text>

  <!-- Recent events -->
  <text x="230" y="575" font-family="monospace" font-size="14" fill="#c9d1d9" font-weight="bold">Recent Events</text>
  <rect x="220" y="587" width="850" height="28" fill="#161b22"/>
  <text x="240" y="605" font-family="monospace" font-size="9" fill="#8b949e">2026-05-27 19:23:29</text>
  <text x="420" y="605" font-family="monospace" font-size="9" fill="#ffab40">ScaleUp</text>
  <text x="510" y="605" font-family="monospace" font-size="9" fill="#c9d1d9">east/jhipster-online ’ replicas: 2’3 (cpu > 80%)</text>

  <rect x="220" y="617" width="850" height="28" fill="#0d1117"/>
  <text x="240" y="635" font-family="monospace" font-size="9" fill="#8b949e">2026-05-27 19:18:14</text>
  <text x="420" y="635" font-family="monospace" font-size="9" fill="#7c4dff">ResourceOptimize</text>
  <text x="545" y="635" font-family="monospace" font-size="9" fill="#c9d1d9">east/spring-petclinic ’ mem: 256Mi’384Mi (AI recommendation)</text>

  <rect x="220" y="647" width="850" height="28" fill="#161b22"/>
  <text x="240" y="665" font-family="monospace" font-size="9" fill="#8b949e">2026-05-27 19:10:55</text>
  <text x="420" y="665" font-family="monospace" font-size="9" fill="#00e676">AgentStarted</text>
  <text x="530" y="665" font-family="monospace" font-size="9" fill="#c9d1d9">west/west-agent initialized in autopilot mode</text>
</svg>
