<?xml version="1.0" encoding="UTF-8"?>
<svg xmlns="http://www.w3.org/2000/svg" viewBox="0 0 1100 650">
  <defs>
    <linearGradient id="hdr" x1="0%" y1="0%" x2="100%" y2="0%">
      <stop offset="0%" stop-color="#1a1a2e"/>
      <stop offset="100%" stop-color="#16213e"/>
    </linearGradient>
  </defs>

  <!-- Window frame -->
  <rect width="1100" height="650" rx="8" fill="#0d1117"/>
  <rect width="1100" height="40" rx="8" fill="url(#hdr)"/>
  <rect x="0" y="32" width="1100" height="8" fill="url(#hdr)"/>
  <circle cx="20" cy="20" r="6" fill="#ff5f56"/>
  <circle cx="40" cy="20" r="6" fill="#ffbd2e"/>
  <circle cx="60" cy="20" r="6" fill="#27c93f"/>
  <text x="550" y="25" font-family="monospace" font-size="12" fill="#8b949e" text-anchor="middle">Kairos Console  Observability</text>

  <!-- Sidebar -->
  <rect x="0" y="40" width="200" height="610" fill="#161b22"/>
  <line x1="200" y1="40" x2="200" y2="650" stroke="#30363d" stroke-width="1"/>

  <text x="100" y="75" font-family="monospace" font-size="16" fill="#00e5ff" text-anchor="middle" font-weight="bold">KAIROS</text>
  <text x="100" y="92" font-family="monospace" font-size="9" fill="#8b949e" text-anchor="middle">Multi-cluster Governance</text>

  <text x="30" y="130" font-family="monospace" font-size="11" fill="#8b949e">=Ę Dashboard</text>
  <text x="30" y="168" font-family="monospace" font-size="11" fill="#8b949e">> Agents</text>
  <text x="30" y="206" font-family="monospace" font-size="11" fill="#8b949e">=Ü Policies</text>
  <text x="30" y="244" font-family="monospace" font-size="11" fill="#8b949e">< Clusters</text>
  <rect x="8" y="258" width="184" height="32" rx="4" fill="#21262d"/>
  <text x="30" y="278" font-family="monospace" font-size="11" fill="#c9d1d9">=á Observability</text>
  <text x="30" y="316" font-family="monospace" font-size="11" fill="#8b949e">=Ë Events</text>

  <!-- Main content -->
  <text x="230" y="75" font-family="monospace" font-size="18" fill="#c9d1d9" font-weight="bold">Observability</text>

  <!-- Thanos card -->
  <rect x="220" y="95" width="420" height="180" rx="6" fill="#161b22" stroke="#30363d"/>
  <text x="240" y="120" font-family="monospace" font-size="13" fill="#ffab40" font-weight="bold">Thanos Querier</text>
  <circle cx="400" cy="115" r="5" fill="#00e676"/>
  <text x="412" y="120" font-family="monospace" font-size="10" fill="#00e676">connected</text>

  <text x="250" y="148" font-family="monospace" font-size="10" fill="#8b949e">Endpoint</text>
  <text x="340" y="148" font-family="monospace" font-size="10" fill="#c9d1d9">thanos-querier.openshift-monitoring.svc:9091</text>
  <text x="250" y="170" font-family="monospace" font-size="10" fill="#8b949e">Protocol</text>
  <text x="340" y="170" font-family="monospace" font-size="10" fill="#c9d1d9">PromQL over HTTPS</text>
  <text x="250" y="192" font-family="monospace" font-size="10" fill="#8b949e">Active Targets</text>
  <text x="340" y="192" font-family="monospace" font-size="10" fill="#00e5ff">220</text>
  <text x="250" y="214" font-family="monospace" font-size="10" fill="#8b949e">Source</text>
  <text x="340" y="214" font-family="monospace" font-size="10" fill="#c9d1d9">OpenShift Cluster Monitoring</text>
  <text x="250" y="236" font-family="monospace" font-size="10" fill="#8b949e">Auth</text>
  <text x="340" y="236" font-family="monospace" font-size="10" fill="#c9d1d9">ServiceAccount Bearer Token</text>
  <text x="250" y="258" font-family="monospace" font-size="10" fill="#8b949e">RBAC</text>
  <text x="340" y="258" font-family="monospace" font-size="10" fill="#00e676">cluster-monitoring-view </text>

  <!-- OTel card -->
  <rect x="660" y="95" width="410" height="180" rx="6" fill="#161b22" stroke="#30363d"/>
  <text x="680" y="120" font-family="monospace" font-size="13" fill="#7c4dff" font-weight="bold">OpenTelemetry</text>
  <circle cx="815" cy="115" r="5" fill="#00e5ff"/>
  <text x="827" y="120" font-family="monospace" font-size="10" fill="#00e5ff">configured</text>

  <text x="680" y="148" font-family="monospace" font-size="10" fill="#8b949e">Endpoint</text>
  <text x="770" y="148" font-family="monospace" font-size="10" fill="#c9d1d9">kairos-otel-collector.kairos-system.svc:4317</text>
  <text x="680" y="170" font-family="monospace" font-size="10" fill="#8b949e">Protocol</text>
  <text x="770" y="170" font-family="monospace" font-size="10" fill="#c9d1d9">gRPC/OTLP</text>
  <text x="680" y="192" font-family="monospace" font-size="10" fill="#8b949e">Port</text>
  <text x="770" y="192" font-family="monospace" font-size="10" fill="#c9d1d9">4317</text>
  <text x="680" y="214" font-family="monospace" font-size="10" fill="#8b949e">Status</text>
  <text x="770" y="214" font-family="monospace" font-size="10" fill="#00e5ff">Collector Ready</text>
  <text x="680" y="236" font-family="monospace" font-size="10" fill="#8b949e">Mode</text>
  <text x="770" y="236" font-family="monospace" font-size="10" fill="#c9d1d9">Deployment</text>

  <!-- Pipeline section -->
  <text x="230" y="310" font-family="monospace" font-size="14" fill="#c9d1d9" font-weight="bold">Active Pipelines</text>
  <rect x="220" y="322" width="850" height="70" rx="6" fill="#161b22" stroke="#30363d"/>

  <text x="250" y="347" font-family="monospace" font-size="11" fill="#c9d1d9" font-weight="bold">metrics</text>
  <circle cx="320" cy="343" r="4" fill="#00e676"/>
  <text x="330" y="347" font-family="monospace" font-size="10" fill="#00e676">active</text>

  <text x="250" y="372" font-family="monospace" font-size="10" fill="#8b949e">Receivers:</text>
  <rect x="320" y="360" width="35" height="18" rx="9" fill="rgba(0,229,255,0.15)" stroke="#00e5ff" stroke-width="0.5"/>
  <text x="338" y="372" font-family="monospace" font-size="9" fill="#00e5ff" text-anchor="middle">otlp</text>
  <rect x="365" y="360" width="75" height="18" rx="9" fill="rgba(124,77,255,0.15)" stroke="#7c4dff" stroke-width="0.5"/>
  <text x="403" y="372" font-family="monospace" font-size="9" fill="#7c4dff" text-anchor="middle">prometheus</text>

  <text x="480" y="372" font-family="monospace" font-size="10" fill="#8b949e">’ Exporters:</text>
  <rect x="575" y="360" width="45" height="18" rx="9" fill="rgba(255,171,64,0.15)" stroke="#ffab40" stroke-width="0.5"/>
  <text x="598" y="372" font-family="monospace" font-size="9" fill="#ffab40" text-anchor="middle">debug</text>

  <!-- Live metrics section -->
  <text x="230" y="430" font-family="monospace" font-size="14" fill="#c9d1d9" font-weight="bold">Live Metrics  up{job="kubelet"}</text>
  <text x="680" y="430" font-family="monospace" font-size="10" fill="#8b949e">18 targets active</text>

  <rect x="220" y="442" width="850" height="30" fill="#161b22"/>
  <text x="240" y="462" font-family="monospace" font-size="10" fill="#00e5ff">INSTANCE</text>
  <text x="530" y="462" font-family="monospace" font-size="10" fill="#00e5ff">JOB</text>
  <text x="650" y="462" font-family="monospace" font-size="10" fill="#00e5ff">NODE</text>
  <text x="920" y="462" font-family="monospace" font-size="10" fill="#00e5ff">VALUE</text>

  <rect x="220" y="474" width="850" height="26" fill="#0d1117"/>
  <text x="240" y="491" font-family="monospace" font-size="9" fill="#c9d1d9">10.128.0.6:10250</text>
  <text x="530" y="491" font-family="monospace" font-size="9" fill="#c9d1d9">kubelet</text>
  <text x="650" y="491" font-family="monospace" font-size="9" fill="#c9d1d9">ip-10-128-0-6.us-east-2.compute.internal</text>
  <text x="940" y="491" font-family="monospace" font-size="9" fill="#00e676" text-anchor="middle">1</text>

  <rect x="220" y="502" width="850" height="26" fill="#161b22"/>
  <text x="240" y="519" font-family="monospace" font-size="9" fill="#c9d1d9">10.128.2.4:10250</text>
  <text x="530" y="519" font-family="monospace" font-size="9" fill="#c9d1d9">kubelet</text>
  <text x="650" y="519" font-family="monospace" font-size="9" fill="#c9d1d9">ip-10-128-2-4.us-east-2.compute.internal</text>
  <text x="940" y="519" font-family="monospace" font-size="9" fill="#00e676" text-anchor="middle">1</text>

  <rect x="220" y="530" width="850" height="26" fill="#0d1117"/>
  <text x="240" y="547" font-family="monospace" font-size="9" fill="#c9d1d9">10.128.4.3:10250</text>
  <text x="530" y="547" font-family="monospace" font-size="9" fill="#c9d1d9">kubelet</text>
  <text x="650" y="547" font-family="monospace" font-size="9" fill="#c9d1d9">ip-10-128-4-3.us-east-2.compute.internal</text>
  <text x="940" y="547" font-family="monospace" font-size="9" fill="#00e676" text-anchor="middle">1</text>

  <rect x="220" y="558" width="850" height="26" fill="#161b22"/>
  <text x="240" y="575" font-family="monospace" font-size="9" fill="#c9d1d9">10.128.0.9:10250</text>
  <text x="530" y="575" font-family="monospace" font-size="9" fill="#c9d1d9">kubelet</text>
  <text x="650" y="575" font-family="monospace" font-size="9" fill="#c9d1d9">ip-10-128-0-9.us-east-2.compute.internal</text>
  <text x="940" y="575" font-family="monospace" font-size="9" fill="#00e676" text-anchor="middle">1</text>

  <rect x="220" y="586" width="850" height="26" fill="#0d1117"/>
  <text x="240" y="603" font-family="monospace" font-size="9" fill="#8b949e">... and 14 more targets</text>

  <!-- Timestamp -->
  <text x="1050" y="635" font-family="monospace" font-size="8" fill="#30363d" text-anchor="end">2026-05-27T19:23:29Z</text>
</svg>
